<svg width="260" height="260" viewBox="0 0 260 260" fill="none" xmlns="http://www.w3.org/2000/svg">
<g filter="url(#filter0_d_602_117)">
<rect x="40" y="36" width="180" height="180" rx="32" fill="white"/>
<rect x="40.5" y="36.5" width="179" height="179" rx="31.5" stroke="white"/>
</g>
<g clip-path="url(#clip0_602_117)">
<path d="M170.893 128.872C170.893 128.667 170.837 128.521 170.722 128.426C170.594 128.323 170.374 128.269 170.067 128.269H169.625V129.482H170.158C170.65 129.482 170.893 129.278 170.893 128.872ZM171.582 131.402H170.975L170.588 130.548C170.391 130.12 170.181 129.906 169.952 129.906H169.625V131.402H169.125V127.843H170.127C170.572 127.843 170.907 127.939 171.136 128.14C171.331 128.313 171.428 128.535 171.428 128.811C171.428 129.056 171.349 129.263 171.189 129.433C171.033 129.607 170.809 129.723 170.524 129.784V129.799C170.722 129.846 170.92 130.064 171.113 130.456L171.582 131.404V131.402ZM172.69 129.657C172.69 128.957 172.451 128.366 171.974 127.897C171.496 127.429 170.912 127.193 170.224 127.193C169.514 127.193 168.923 127.429 168.454 127.901C167.986 128.376 167.752 128.963 167.752 129.657C167.752 130.367 167.995 130.96 168.478 131.433C168.954 131.905 169.538 132.139 170.224 132.139C170.907 132.139 171.49 131.903 171.97 131.425C172.451 130.954 172.69 130.363 172.69 129.657ZM173.026 129.642C173.026 130.428 172.756 131.087 172.214 131.618C171.671 132.153 171.006 132.419 170.21 132.419C169.409 132.419 168.744 132.156 168.215 131.641C167.686 131.118 167.424 130.461 167.424 129.663C167.424 128.883 167.692 128.228 168.229 127.689C168.765 127.153 169.434 126.884 170.234 126.884C171.018 126.884 171.675 127.141 172.208 127.652C172.754 128.177 173.026 128.839 173.026 129.642Z" fill="black"/>
<path d="M96.9612 139.566H95.2363V129.694C95.2363 128.914 95.2876 127.965 95.3795 126.845H95.3405C95.179 127.501 95.0312 127.975 94.901 128.269L89.8874 139.566H89.0472L84.0238 128.351C83.8822 128.037 83.7341 127.534 83.5843 126.845H83.547C83.5999 127.434 83.6294 128.389 83.6294 129.714V139.566H81.9666V124.865H84.2419L88.752 135.116C89.0922 135.888 89.3121 136.476 89.4189 136.876H89.4905C89.7841 136.073 90.0175 135.47 90.1945 135.074L94.8016 124.865H96.9603V139.566H96.9612Z" fill="black"/>
<path d="M102.267 139.565H100.591V129.068H102.267V139.565ZM102.557 125.304C102.557 125.614 102.448 125.872 102.232 126.084C102.021 126.296 101.758 126.403 101.451 126.403C101.151 126.403 100.891 126.301 100.677 126.096C100.463 125.89 100.358 125.627 100.358 125.304C100.358 125.001 100.463 124.742 100.677 124.532C100.891 124.322 101.151 124.221 101.451 124.221C101.758 124.221 102.021 124.322 102.232 124.532C102.448 124.742 102.557 125.001 102.557 125.304Z" fill="black"/>
<path d="M112.744 139.08C111.939 139.574 110.978 139.819 109.867 139.819C108.362 139.819 107.151 139.319 106.225 138.321C105.326 137.353 104.873 136.102 104.873 134.57C104.873 132.851 105.365 131.458 106.357 130.4C107.343 129.34 108.67 128.811 110.338 128.811C111.25 128.811 112.059 128.99 112.767 129.344V131.069C111.983 130.519 111.155 130.247 110.266 130.247C109.196 130.247 108.327 130.62 107.652 131.365C106.95 132.127 106.594 133.146 106.594 134.418C106.594 135.639 106.919 136.606 107.565 137.32C108.212 138.03 109.074 138.385 110.161 138.385C111.079 138.385 111.939 138.084 112.744 137.483V139.08Z" fill="black"/>
<path d="M120.762 130.771C120.466 130.543 120.041 130.432 119.479 130.432C118.796 130.432 118.222 130.738 117.757 131.354C117.23 132.043 116.968 132.996 116.968 134.213V139.565H115.288V129.067H116.968V131.232H117.008C117.255 130.465 117.637 129.876 118.146 129.458C118.623 129.077 119.161 128.884 119.754 128.884C120.202 128.884 120.534 128.933 120.762 129.027V130.77L120.762 130.771Z" fill="black"/>
<path d="M130.127 134.336C130.127 132.992 129.824 131.965 129.217 131.261C128.628 130.584 127.805 130.246 126.745 130.246C125.701 130.246 124.863 130.588 124.236 131.273C123.573 132.004 123.243 133.037 123.243 134.377C123.243 135.633 123.558 136.619 124.194 137.323C124.826 138.031 125.677 138.385 126.745 138.385C127.85 138.385 128.696 138.025 129.275 137.309C129.843 136.609 130.127 135.619 130.127 134.336ZM131.85 134.277C131.85 135.949 131.378 137.293 130.436 138.3C129.491 139.312 128.219 139.817 126.621 139.817C125.045 139.817 123.791 139.312 122.871 138.3C121.971 137.326 121.518 136.038 121.518 134.438C121.518 132.612 122.029 131.204 123.056 130.204C124.005 129.277 125.275 128.81 126.866 128.81C128.431 128.81 129.655 129.298 130.535 130.265C131.409 131.237 131.85 132.575 131.85 134.277Z" fill="black"/>
<path d="M140.183 136.757C140.183 137.616 139.862 138.328 139.219 138.896C138.517 139.511 137.552 139.818 136.339 139.818C135.345 139.818 134.473 139.61 133.734 139.186V137.379C134.557 138.048 135.465 138.385 136.463 138.385C137.793 138.385 138.46 137.895 138.46 136.918C138.46 136.508 138.314 136.168 138.019 135.905C137.723 135.637 137.149 135.316 136.296 134.94C135.417 134.555 134.79 134.161 134.421 133.75C133.978 133.264 133.754 132.632 133.754 131.854C133.754 130.983 134.102 130.257 134.79 129.68C135.481 129.1 136.368 128.811 137.457 128.811C138.291 128.811 139.038 128.974 139.701 129.303V130.995C139.009 130.495 138.217 130.246 137.319 130.246C136.762 130.246 136.315 130.384 135.983 130.654C135.646 130.93 135.477 131.282 135.477 131.712C135.477 132.177 135.618 132.539 135.899 132.797C136.148 133.037 136.677 133.328 137.474 133.669C138.371 134.044 139.018 134.433 139.413 134.832C139.925 135.335 140.183 135.977 140.183 136.757Z" fill="black"/>
<path d="M150.452 134.336C150.452 132.992 150.149 131.965 149.54 131.261C148.953 130.584 148.128 130.246 147.07 130.246C146.026 130.246 145.188 130.588 144.558 131.273C143.896 132.004 143.568 133.037 143.568 134.377C143.568 135.633 143.883 136.619 144.513 137.323C145.153 138.031 146.005 138.385 147.07 138.385C148.177 138.385 149.021 138.025 149.6 137.309C150.168 136.609 150.452 135.619 150.452 134.336ZM152.179 134.277C152.179 135.949 151.703 137.293 150.76 138.3C149.818 139.312 148.546 139.817 146.948 139.817C145.371 139.817 144.116 139.312 143.196 138.3C142.296 137.326 141.843 136.038 141.843 134.438C141.843 132.612 142.358 131.204 143.379 130.204C144.328 129.277 145.6 128.81 147.193 128.81C148.758 128.81 149.98 129.298 150.859 130.265C151.734 131.237 152.179 132.575 152.179 134.277Z" fill="black"/>
<path d="M159.584 125.501C159.253 125.318 158.886 125.224 158.467 125.224C157.291 125.224 156.707 125.965 156.707 127.449V129.067H159.167V130.491H156.707V139.565H155.025V130.491H153.24V129.067H155.025V127.366C155.025 126.21 155.379 125.304 156.099 124.651C156.715 124.083 157.47 123.801 158.366 123.801C158.886 123.801 159.29 123.863 159.584 123.984V125.501Z" fill="black"/>
<path d="M166.216 139.46C165.819 139.687 165.29 139.8 164.636 139.8C162.804 139.8 161.889 138.767 161.889 136.702V130.492H160.088V129.067H161.889V126.505C162.425 126.336 162.983 126.152 163.573 125.961V129.067H166.216V130.492H163.573V136.416C163.573 137.12 163.688 137.624 163.929 137.915C164.172 138.217 164.568 138.365 165.129 138.365C165.547 138.365 165.908 138.253 166.216 138.026V139.46Z" fill="black"/>
<path d="M75.3791 180.537C75.3791 181.36 75.0855 182.072 74.4922 182.673C73.901 183.272 73.1833 183.573 72.3413 183.573C71.5186 183.573 70.8185 183.272 70.2448 182.673C69.6711 182.072 69.3853 181.36 69.3853 180.537C69.3853 179.692 69.6711 178.978 70.2448 178.387C70.8185 177.793 71.5186 177.5 72.3413 177.5C73.1833 177.5 73.901 177.797 74.4922 178.398C75.0855 178.999 75.3791 179.713 75.3791 180.537Z" fill="black"/>
<path d="M113.002 182.955H107.522L87.6286 152.234C87.1637 151.494 86.7631 150.691 86.4228 149.814H86.2593C86.4009 150.637 86.4734 152.403 86.4734 155.108V182.955H81.9556V144.412H87.8191L107.117 174.649C107.885 175.849 108.41 176.708 108.677 177.226H108.784C108.605 176.117 108.512 174.227 108.512 171.559V144.412H113.002V182.955H113.002Z" fill="black"/>
<path d="M141.965 182.955H121.537V144.412H141.078V148.496H126.051V161.317H139.975V165.404H126.051V178.869H141.965V182.955Z" fill="black"/>
<path d="M172.95 148.496H161.848V182.956H157.332V148.496H146.208V144.41H172.95V148.496Z" fill="black"/>
<path d="M111.47 77.8381C115.828 91.1656 117.48 114.941 130.224 114.941C131.194 114.941 132.174 114.846 133.158 114.658C121.573 111.957 120.2 88.4409 113.131 76.2627C112.577 76.7664 112.026 77.2915 111.47 77.8381Z" fill="url(#paint0_linear_602_117)"/>
<path d="M113.131 76.2629C120.2 88.4411 121.573 111.957 133.158 114.659C134.068 114.491 134.98 114.239 135.894 113.92C125.496 108.824 122.621 85.9888 114.593 74.9949C114.107 75.3995 113.619 75.8235 113.131 76.2629Z" fill="url(#paint1_linear_602_117)"/>
<path d="M123.316 69.0203C122.348 69.0203 121.366 69.1151 120.38 69.3023C117.801 69.7885 115.182 70.8989 112.541 72.5792C113.262 73.291 113.948 74.1058 114.594 74.9946C117.28 72.7659 119.948 71.1187 122.607 70.1288C123.604 69.7593 124.598 69.4812 125.596 69.2984C124.876 69.1155 124.118 69.0203 123.316 69.0203Z" fill="#14559A"/>
<path d="M144.012 109.223C145.076 108.377 146.142 107.441 147.209 106.42C142.781 93.155 141.196 69.0398 128.362 69.0398C127.444 69.0398 126.519 69.1254 125.595 69.2965C137.285 72.204 138.783 97.6378 144.012 109.223Z" fill="url(#paint2_linear_602_117)"/>
<path d="M125.595 69.2975C124.876 69.1147 124.117 69.0195 123.316 69.0195L128.363 69.038C127.445 69.038 126.519 69.1236 125.595 69.2968" fill="#3092C4"/>
<path d="M143.788 112.041C143.286 111.562 142.81 111.037 142.341 110.477C140.182 112.006 138.031 113.165 135.894 113.92C136.654 114.291 137.452 114.567 138.298 114.738C138.953 114.872 139.632 114.941 140.346 114.941C142.744 114.941 144.64 114.657 146.254 113.883C145.365 113.402 144.55 112.78 143.788 112.041Z" fill="#1969BC"/>
<path d="M122.606 70.131C133.077 75.6075 133.987 100.407 142.342 110.477C142.902 110.083 143.456 109.664 144.01 109.223C138.781 97.6379 137.285 72.2021 125.597 69.2966C124.599 69.4833 123.604 69.7597 122.606 70.131Z" fill="url(#paint3_linear_602_117)"/>
<path d="M114.594 74.9947C122.622 85.9885 125.496 108.824 135.895 113.919C138.032 113.165 140.183 112.006 142.342 110.477C133.987 100.407 133.077 75.6073 122.606 70.1309C119.947 71.1188 117.279 72.7659 114.594 74.9947Z" fill="url(#paint4_linear_602_117)"/>
<path d="M106.334 77.5172C105.075 80.3625 103.79 84.1022 102.236 88.9836C105.326 84.6291 108.407 80.8777 111.47 77.8381C111.048 76.5409 110.595 75.3449 110.107 74.2791C108.854 75.2379 107.592 76.3173 106.334 77.5172Z" fill="url(#paint5_linear_602_117)"/>
<path d="M111.222 73.4587C110.853 73.7232 110.482 73.9936 110.108 74.2794C110.596 75.3452 111.047 76.5413 111.469 77.8384C112.026 77.2938 112.578 76.7668 113.13 76.2631C112.537 75.244 111.907 74.3027 111.222 73.4587Z" fill="#2B74B1"/>
<path d="M112.541 72.5791C112.101 72.8573 111.664 73.1508 111.222 73.4581C111.907 74.3022 112.537 75.2434 113.132 76.2645C113.62 75.823 114.108 75.3971 114.594 74.9945C113.949 74.1058 113.262 73.2909 112.541 72.5791Z" fill="#125A9E"/>
<path d="M183.96 68.0054C178.038 90.8428 165.669 109.186 155.299 113.811H155.28C155.091 113.896 154.904 113.974 154.72 114.05C154.694 114.065 154.671 114.067 154.652 114.076C154.597 114.098 154.547 114.115 154.492 114.137C154.467 114.152 154.444 114.157 154.42 114.167C154.333 114.198 154.247 114.224 154.162 114.258C154.125 114.274 154.09 114.284 154.055 114.296C154.016 114.311 153.971 114.326 153.926 114.338C153.887 114.353 153.847 114.364 153.802 114.381C153.765 114.397 153.726 114.403 153.691 114.419C153.615 114.441 153.545 114.459 153.469 114.486C153.438 114.486 153.409 114.503 153.376 114.511C153.329 114.526 153.277 114.537 153.226 114.551C153.191 114.567 153.162 114.572 153.125 114.579C153.072 114.595 153.014 114.609 152.962 114.621C152.892 114.637 152.829 114.651 152.763 114.665C153.232 114.838 153.72 114.925 154.247 114.925C164.08 114.925 173.994 97.3039 190.398 68H183.957L183.96 68.0054Z" fill="url(#paint6_linear_602_117)"/>
<path d="M100.101 69.947C100.107 69.947 100.115 69.9316 100.118 69.9316C100.126 69.9316 100.138 69.9316 100.142 69.9162H100.154C100.209 69.8977 100.259 69.8758 100.314 69.8555C100.328 69.8555 100.335 69.8555 100.345 69.8401C100.359 69.8401 100.372 69.8247 100.386 69.8228C100.444 69.8043 100.503 69.7823 100.557 69.7621H100.566C100.697 69.7232 100.817 69.675 100.944 69.6299C100.961 69.6299 100.979 69.6145 101 69.6145C101.052 69.5975 101.107 69.5787 101.161 69.5663C101.187 69.5508 101.212 69.5508 101.235 69.5428C101.292 69.5258 101.346 69.5069 101.399 69.4945C101.422 69.4945 101.443 69.4791 101.461 69.4776C101.642 69.4278 101.821 69.3811 102.001 69.3375C102.027 69.3375 102.048 69.3221 102.075 69.3206C102.128 69.3052 102.176 69.2971 102.233 69.2894C102.256 69.274 102.283 69.274 102.311 69.2659C102.363 69.2505 102.414 69.2489 102.47 69.2362H102.507C102.616 69.2143 102.727 69.1958 102.836 69.1755H102.902C102.954 69.1601 103.001 69.1586 103.054 69.149C103.083 69.149 103.112 69.1335 103.139 69.1335C103.188 69.1335 103.236 69.1181 103.285 69.1116C103.31 69.1116 103.335 69.1116 103.365 69.0962C103.479 69.0808 103.598 69.0746 103.719 69.065C103.378 69.0322 103.028 69.0105 102.672 69.0105C91.5989 69.0105 76.3421 89.557 69.4692 116.165H70.7936C72.9932 112.243 74.9691 108.532 76.7758 105.049C81.5891 86.2023 91.3927 73.3492 100.101 69.944" fill="url(#paint7_linear_602_117)"/>
<path d="M106.334 77.5172C107.592 76.3174 108.854 75.2379 110.107 74.2792C109.821 73.653 109.525 73.0735 109.208 72.5425C108.195 73.7716 107.269 75.3935 106.334 77.5172Z" fill="#0D82CA"/>
<path d="M107.244 70.1029C107.967 70.7097 108.615 71.544 109.208 72.5437C109.394 72.3142 109.583 72.1021 109.78 71.9038C108.957 71.1356 108.068 70.5055 107.104 70.031C107.142 70.0526 107.181 70.0699 107.222 70.087C107.222 70.087 107.237 70.1024 107.244 70.1024" fill="#0D82CA"/>
<path d="M76.7754 105.051C86.8727 85.5937 91.6568 73.2794 100.101 69.946C91.3943 73.3534 81.5887 86.2064 76.7754 105.051Z" fill="url(#paint8_linear_602_117)"/>
<path d="M109.779 71.9031C109.582 72.1035 109.396 72.3135 109.207 72.543C109.524 73.0738 109.82 73.6515 110.108 74.2796C110.481 73.9938 110.852 73.7234 111.222 73.4589C110.765 72.8949 110.283 72.3718 109.779 71.9031Z" fill="#127BCA"/>
<path d="M81.3592 116.08C81.2969 116.096 81.2347 116.096 81.1763 116.102H81.1413C81.0887 116.102 81.0343 116.118 80.9857 116.118H80.9604C80.8341 116.133 80.7095 116.133 80.5889 116.143H80.55C90.7699 115.857 95.4412 110.74 97.7594 103.319C99.5213 97.6926 100.968 92.9531 102.236 88.9761C97.9558 95.001 93.6559 102.183 89.3327 110.229C87.2479 114.106 84.0779 115.726 81.3591 116.073" fill="url(#paint9_linear_602_117)"/>
<path d="M81.3591 116.076C84.0779 115.73 87.2479 114.112 89.3327 110.232C93.6559 102.189 97.9578 95.0045 102.234 88.9796C103.79 84.0962 105.074 80.3585 106.334 77.5132C97.81 85.6268 89.253 99.1178 81.3591 116.072" fill="url(#paint10_linear_602_117)"/>
<path d="M76.7749 105.052C74.9682 108.535 72.9923 112.246 70.7927 116.168H74.6454C75.1549 112.273 75.8784 108.558 76.7749 105.054" fill="#05A1E6"/>
<path d="M103.364 69.1062C103.333 69.1062 103.31 69.1216 103.283 69.1216C103.236 69.137 103.187 69.137 103.139 69.142C103.11 69.142 103.082 69.142 103.053 69.1575C103.001 69.1729 102.952 69.1744 102.901 69.184C102.878 69.184 102.855 69.184 102.835 69.1994C102.724 69.2179 102.616 69.2384 102.507 69.257H102.47C102.413 69.2724 102.363 69.2805 102.31 69.2882C102.283 69.3036 102.256 69.3036 102.23 69.3098C102.178 69.3252 102.125 69.3317 102.075 69.341C102.047 69.3564 102.026 69.3564 102.001 69.3579C101.82 69.4015 101.641 69.4482 101.46 69.498C101.441 69.498 101.421 69.5134 101.398 69.5165C101.344 69.5319 101.291 69.5477 101.235 69.5647C101.211 69.5801 101.184 69.5801 101.161 69.5863C101.106 69.6017 101.052 69.6175 100.999 69.6345C100.978 69.6345 100.96 69.6499 100.941 69.6499C100.817 69.6966 100.694 69.7433 100.566 69.7822C100.511 69.7991 100.453 69.821 100.395 69.8413C100.371 69.8567 100.35 69.8601 100.323 69.8709C100.268 69.8879 100.214 69.9098 100.163 69.9301C100.144 69.9455 100.124 69.947 100.111 69.9551C91.6665 73.2884 86.8823 85.6028 76.785 105.06C75.8885 108.565 75.1631 112.279 74.6555 116.175H75.1962C76.7189 116.175 77.1487 116.159 78.901 116.159H78.9904H79.251H79.3405H79.3658H79.4553H79.5059H79.5409H79.6109H79.8287H80.0465H80.2293H80.2779H80.5988C80.7193 116.144 80.8438 116.144 80.9702 116.134H80.9936C81.0461 116.134 81.0986 116.119 81.1491 116.119H81.186C81.2423 116.119 81.3066 116.103 81.3688 116.097C89.2627 99.1423 97.8197 85.6513 106.344 77.5377C107.281 75.414 108.205 73.7921 109.216 72.565C108.625 71.5654 107.977 70.7291 107.254 70.1222C107.254 70.1222 107.234 70.1222 107.233 70.1068C107.192 70.0899 107.153 70.0694 107.112 70.0493C107.071 70.0273 107.036 70.0104 106.993 69.9886C106.957 69.9732 106.914 69.9528 106.877 69.9326C106.826 69.9172 106.785 69.8952 106.741 69.875C106.704 69.8596 106.671 69.8438 106.634 69.8283C106.558 69.7987 106.482 69.7676 106.41 69.735C106.377 69.7196 106.346 69.7115 106.315 69.6992C106.262 69.6803 106.202 69.6556 106.147 69.6322C106.12 69.6168 106.089 69.6137 106.058 69.6026C105.978 69.576 105.9 69.5481 105.826 69.5232H105.807C105.718 69.4935 105.63 69.4719 105.539 69.447C105.518 69.4316 105.5 69.4316 105.479 69.4285C105.399 69.4065 105.329 69.3849 105.253 69.3647C105.234 69.3647 105.216 69.3493 105.201 69.3493C105.018 69.301 104.829 69.2622 104.639 69.2264C104.619 69.2264 104.6 69.211 104.58 69.211C104.499 69.1956 104.419 69.1813 104.337 69.1721C104.317 69.1566 104.306 69.1566 104.289 69.1566C104.191 69.1412 104.096 69.1301 104.001 69.1193H103.95C103.872 69.1039 103.801 69.1023 103.728 69.0942C103.606 69.1096 103.489 69.1162 103.374 69.127" fill="url(#paint11_linear_602_117)"/>
<path d="M160.829 80.6482C158.886 86.8715 157.312 92.0057 155.943 96.2298C161.274 88.8941 166.525 79.666 171.525 69.0166C165.693 70.8484 162.581 75.0415 160.829 80.6482Z" fill="url(#paint12_linear_602_117)"/>
<path d="M156.112 113.422C155.84 113.56 155.568 113.692 155.3 113.811C165.669 109.186 178.038 90.8428 183.96 68.0054H182.76C169.154 92.3092 164.778 108.579 156.112 113.422Z" fill="url(#paint13_linear_602_117)"/>
<path d="M149.341 111.38C151.597 108.626 153.435 103.945 155.944 96.23C153.05 100.205 150.137 103.622 147.221 106.409C147.221 106.424 147.221 106.424 147.206 106.434C147.842 108.34 148.54 110.022 149.336 111.379" fill="#079AE1"/>
<path d="M149.341 111.38C148.573 112.317 147.76 113.031 146.856 113.56C146.657 113.675 146.457 113.784 146.253 113.883C147.208 114.398 148.25 114.743 149.417 114.88C149.588 114.897 149.757 114.913 149.934 114.926H149.966C150.045 114.926 150.129 114.926 150.214 114.941H150.249H150.504H150.778H150.864H151.058C151.089 114.941 151.122 114.941 151.153 114.926C151.214 114.926 151.277 114.926 151.34 114.91H151.362H151.432C151.495 114.91 151.565 114.895 151.634 114.888H151.649C151.67 114.888 151.691 114.873 151.711 114.873C151.783 114.857 151.858 114.851 151.927 114.84H151.991C152.07 114.825 152.153 114.815 152.234 114.8H152.25H152.273C152.436 114.768 152.596 114.737 152.757 114.697C151.419 114.207 150.299 113.052 149.334 111.406" fill="#1969BC"/>
<path d="M130.224 114.941C131.194 114.941 132.175 114.846 133.159 114.657C134.069 114.492 134.981 114.239 135.895 113.92C136.655 114.291 137.453 114.568 138.297 114.739C138.952 114.873 139.633 114.941 140.347 114.941H130.224Z" fill="#1E5CB3"/>
<path d="M140.347 114.941C142.743 114.941 144.641 114.657 146.253 113.883C147.208 114.398 148.25 114.743 149.417 114.881C149.588 114.898 149.758 114.914 149.934 114.926H149.966C150.045 114.926 150.129 114.926 150.215 114.941H150.25H150.505H140.34L140.347 114.941Z" fill="#1E5CB3"/>
<path d="M150.511 114.941H150.787H150.873H151.066C151.098 114.941 151.129 114.941 151.16 114.925C151.221 114.925 151.285 114.925 151.349 114.91H151.37H151.441C151.505 114.91 151.575 114.895 151.642 114.888H151.659C151.679 114.888 151.699 114.873 151.719 114.873C151.791 114.858 151.865 114.852 151.935 114.84C151.959 114.84 151.977 114.84 152.002 114.825C152.081 114.81 152.163 114.801 152.245 114.786H152.261H152.284C152.447 114.755 152.607 114.724 152.768 114.683C153.237 114.856 153.725 114.944 154.252 114.944L150.514 114.959L150.511 114.941Z" fill="#1D60B5"/>
<path d="M147.212 106.434V106.419C146.145 107.44 145.079 108.375 144.015 109.221C143.459 109.663 142.905 110.081 142.345 110.476C142.813 111.036 143.29 111.561 143.792 112.039C144.554 112.778 145.369 113.401 146.258 113.881C146.46 113.781 146.662 113.673 146.858 113.558C147.765 113.029 148.578 112.316 149.346 111.378C148.55 110.021 147.852 108.338 147.216 106.433" fill="#175FAB"/>
<path d="M178.96 68.0054H173.915H173.413H172.939H172.92C172.594 68.0208 172.277 68.032 171.963 68.0521C171.816 68.3692 171.664 68.6862 171.518 69.0052C166.518 79.6546 161.267 88.8827 155.937 96.2184C153.43 103.933 151.59 108.614 149.334 111.368C150.299 113.013 151.421 114.171 152.755 114.661C152.794 114.645 152.825 114.645 152.86 114.637H152.881C152.905 114.637 152.93 114.622 152.955 114.622C153.01 114.606 153.068 114.597 153.123 114.58C153.158 114.564 153.187 114.563 153.222 114.552C153.272 114.536 153.325 114.525 153.372 114.513C153.403 114.497 153.434 114.492 153.465 114.486C153.543 114.461 153.613 114.443 153.687 114.419C153.722 114.404 153.759 114.391 153.798 114.382C153.84 114.366 153.883 114.355 153.922 114.337C153.967 114.321 154.011 114.313 154.05 114.296C154.085 114.281 154.122 114.271 154.155 114.257C154.243 114.226 154.328 114.2 154.416 114.166C154.439 114.166 154.463 114.144 154.488 114.139C154.54 114.117 154.595 114.1 154.647 114.077C154.667 114.061 154.69 114.06 154.715 114.052C154.898 113.975 155.087 113.898 155.276 113.813H155.295C155.564 113.694 155.836 113.562 156.106 113.424C164.774 108.581 169.15 92.3111 182.756 68.0073H178.955L178.96 68.0054Z" fill="url(#paint14_linear_602_117)"/>
<path d="M103.719 69.0732C103.74 69.0732 103.759 69.0732 103.781 69.0887C103.833 69.0887 103.886 69.0887 103.938 69.1056H103.991C104.086 69.121 104.181 69.1291 104.279 69.143C104.296 69.143 104.312 69.143 104.327 69.1584C104.407 69.1738 104.489 69.1865 104.57 69.1988C104.588 69.1988 104.611 69.2142 104.631 69.2142C104.817 69.2516 105.008 69.2905 105.191 69.3387C105.208 69.3387 105.226 69.3541 105.241 69.3541C105.319 69.3726 105.389 69.3961 105.467 69.4179C105.49 69.4179 105.508 69.4333 105.529 69.4368C105.621 69.4603 105.706 69.4835 105.796 69.513C105.799 69.513 105.805 69.513 105.815 69.5284C105.891 69.5515 105.969 69.5813 106.049 69.6077C106.08 69.6231 106.109 69.6297 106.138 69.6374C106.193 69.6609 106.253 69.6841 106.305 69.7059C106.337 69.7059 106.368 69.7274 106.401 69.7386C106.472 69.7714 106.548 69.8008 106.622 69.832C106.661 69.8474 106.694 69.8647 106.731 69.8786C106.774 69.9006 106.819 69.9206 106.865 69.9362C106.904 69.9547 106.947 69.9751 106.984 69.9922C107.025 70.0141 107.063 70.0311 107.103 70.0529C108.067 70.5274 108.956 71.1595 109.779 71.9258C110.082 71.6068 110.399 71.3208 110.728 71.0642C108.929 69.7884 106.891 69.061 104.539 69.061C104.267 69.061 103.995 69.0764 103.719 69.0969" fill="#7DCBEC"/>
<path d="M109.779 71.9031C110.283 72.3717 110.765 72.895 111.222 73.459C111.663 73.1517 112.101 72.8561 112.54 72.5799C111.965 72.0042 111.358 71.4869 110.726 71.0415C110.397 71.2963 110.082 71.5842 109.779 71.9031Z" fill="#5EC5ED"/>
<path d="M103.718 69.0729C103.994 69.0496 104.267 69.0398 104.539 69.0398C106.89 69.0398 108.928 69.7672 110.727 71.041C112.625 69.5435 114.92 69.0204 118.108 69.0204H102.672C103.028 69.0204 103.376 69.0418 103.718 69.0729Z" fill="url(#paint15_linear_602_117)"/>
<path d="M118.107 69.0204C114.92 69.0204 112.625 69.5435 110.727 71.041C111.357 71.4864 111.964 72.0037 112.54 72.5793C115.183 70.8991 117.8 69.7866 120.381 69.3005C121.365 69.1157 122.347 69.0204 123.316 69.0204H118.107Z" fill="url(#paint16_linear_602_117)"/>
<path d="M155.943 96.2337C157.314 92.0057 158.884 86.8735 160.83 80.6482C162.585 75.0395 165.691 70.8465 171.523 69.0166C171.677 68.7034 171.822 68.3805 171.972 68.0635C162.464 68.6334 158.02 73.4699 155.784 80.6327C151.873 93.1376 149.504 101.243 147.223 106.409C150.136 103.624 153.049 100.205 155.943 96.2337Z" fill="url(#paint17_linear_602_117)"/>
<path d="M169.892 111.61H168.815V114.959H168.375V111.61H167.294V111.211H169.892V111.61Z" fill="black"/>
<path d="M174.304 114.958H173.866V112.441C173.866 112.243 173.882 112 173.902 111.714C173.857 111.885 173.82 112.004 173.786 112.08L172.51 114.958H172.296L171.016 112.101C170.979 112.022 170.942 111.893 170.901 111.714H170.886C170.901 111.865 170.906 112.109 170.906 112.447V114.958H170.486V111.21H171.066L172.215 113.826C172.302 114.023 172.356 114.174 172.384 114.275H172.401C172.477 114.069 172.54 113.916 172.582 113.814L173.755 111.21H174.307V114.958H174.304Z" fill="black"/>
</g>
<defs>
<filter id="filter0_d_602_117" x="0" y="0" width="260" height="260" filterUnits="userSpaceOnUse" color-interpolation-filters="sRGB">
<feFlood flood-opacity="0" result="BackgroundImageFix"/>
<feColorMatrix in="SourceAlpha" type="matrix" values="0 0 0 0 0 0 0 0 0 0 0 0 0 0 0 0 0 0 127 0" result="hardAlpha"/>
<feOffset dy="4"/>
<feGaussianBlur stdDeviation="20"/>
<feComposite in2="hardAlpha" operator="out"/>
<feColorMatrix type="matrix" values="0 0 0 0 0.0367917 0 0 0 0 0.0348958 0 0 0 0 0.0484375 0 0 0 0.1 0"/>
<feBlend mode="normal" in2="BackgroundImageFix" result="effect1_dropShadow_602_117"/>
<feBlend mode="normal" in="SourceGraphic" in2="effect1_dropShadow_602_117" result="shape"/>
</filter>
<linearGradient id="paint0_linear_602_117" x1="1195.82" y1="-678.577" x2="1195.82" y2="5089.89" gradientUnits="userSpaceOnUse">
<stop stop-color="#0994DC"/>
<stop offset="0.350006" stop-color="#66CEF5"/>
<stop offset="0.846161" stop-color="#127BCA"/>
<stop offset="1" stop-color="#127BCA"/>
</linearGradient>
<linearGradient id="paint1_linear_602_117" x1="1251.33" y1="-699.091" x2="1251.33" y2="5216.38" gradientUnits="userSpaceOnUse">
<stop stop-color="#0E76BC"/>
<stop offset="0.360001" stop-color="#36AEE8"/>
<stop offset="0.846161" stop-color="#00ADEF"/>
<stop offset="1" stop-color="#00ADEF"/>
</linearGradient>
<linearGradient id="paint2_linear_602_117" x1="1206.29" y1="4526.2" x2="1206.29" y2="-180.655" gradientUnits="userSpaceOnUse">
<stop stop-color="#1C63B7"/>
<stop offset="0.5" stop-color="#33BDF2"/>
<stop offset="1" stop-color="#33BDF2" stop-opacity="0.419608"/>
</linearGradient>
<linearGradient id="paint3_linear_602_117" x1="1192.84" y1="-734.346" x2="1192.84" y2="5407.45" gradientUnits="userSpaceOnUse">
<stop stop-color="#166AB8"/>
<stop offset="0.399994" stop-color="#36AEE8"/>
<stop offset="0.846161" stop-color="#0798DD"/>
<stop offset="1" stop-color="#0798DD"/>
</linearGradient>
<linearGradient id="paint4_linear_602_117" x1="1501.96" y1="-784.672" x2="1501.96" y2="5746.31" gradientUnits="userSpaceOnUse">
<stop stop-color="#124379"/>
<stop offset="0.389999" stop-color="#1487CB"/>
<stop offset="0.780228" stop-color="#165197"/>
<stop offset="1" stop-color="#165197"/>
</linearGradient>
<linearGradient id="paint5_linear_602_117" x1="102.239" y1="809.513" x2="1025.62" y2="809.513" gradientUnits="userSpaceOnUse">
<stop stop-color="#33BDF2" stop-opacity="0.698039"/>
<stop offset="1" stop-color="#1DACD8"/>
</linearGradient>
<linearGradient id="paint6_linear_602_117" x1="2034.89" y1="4511.2" x2="2034.89" y2="-73.9299" gradientUnits="userSpaceOnUse">
<stop stop-color="#136AB4"/>
<stop offset="0.6" stop-color="#59CAF5" stop-opacity="0.54902"/>
<stop offset="1" stop-color="#59CAF5" stop-opacity="0.235294"/>
</linearGradient>
<linearGradient id="paint7_linear_602_117" x1="69.4432" y1="2426.74" x2="3494.39" y2="2426.74" gradientUnits="userSpaceOnUse">
<stop stop-color="#05A1E6" stop-opacity="0.247059"/>
<stop offset="1" stop-color="#05A1E6"/>
</linearGradient>
<linearGradient id="paint8_linear_602_117" x1="1243.02" y1="4434.01" x2="1243.02" y2="-260.794" gradientUnits="userSpaceOnUse">
<stop stop-color="#318ED5"/>
<stop offset="1" stop-color="#38A7E4"/>
</linearGradient>
<linearGradient id="paint9_linear_602_117" x1="1164.83" y1="2566.58" x2="1164.83" y2="-1997.03" gradientUnits="userSpaceOnUse">
<stop stop-color="#05A1E6"/>
<stop offset="1" stop-color="#05A1E6" stop-opacity="0.54902"/>
</linearGradient>
<linearGradient id="paint10_linear_602_117" x1="1330.1" y1="3934.23" x2="1330.1" y2="77.9062" gradientUnits="userSpaceOnUse">
<stop stop-color="#1959A6"/>
<stop offset="0.5" stop-color="#05A1E6"/>
<stop offset="0.917587" stop-color="#7EC5EA"/>
<stop offset="1" stop-color="#7EC5EA"/>
</linearGradient>
<linearGradient id="paint11_linear_602_117" x1="2141.52" y1="4521.39" x2="834.328" y2="526.534" gradientUnits="userSpaceOnUse">
<stop stop-color="#165096"/>
<stop offset="1" stop-color="#0D82CA"/>
</linearGradient>
<linearGradient id="paint12_linear_602_117" x1="934.941" y1="2164.38" x2="934.941" y2="-20.758" gradientUnits="userSpaceOnUse">
<stop stop-color="#05A1E6"/>
<stop offset="0.873627" stop-color="#0495D6"/>
<stop offset="1" stop-color="#0495D6"/>
</linearGradient>
<linearGradient id="paint13_linear_602_117" x1="2025.76" y1="-122.61" x2="-10.7929" y2="4399.12" gradientUnits="userSpaceOnUse">
<stop stop-color="#38A7E4" stop-opacity="0.329412"/>
<stop offset="0.961533" stop-color="#0E88D3"/>
<stop offset="1" stop-color="#0E88D3"/>
</linearGradient>
<linearGradient id="paint14_linear_602_117" x1="1820.97" y1="54.2059" x2="1820.97" y2="4821.33" gradientUnits="userSpaceOnUse">
<stop stop-color="#168CD4"/>
<stop offset="0.5" stop-color="#1C87CC"/>
<stop offset="1" stop-color="#154B8D"/>
</linearGradient>
<linearGradient id="paint15_linear_602_117" x1="360.044" y1="-344.328" x2="380.7" y2="155.636" gradientUnits="userSpaceOnUse">
<stop stop-color="#97D6EE"/>
<stop offset="0.703293" stop-color="#55C1EA"/>
<stop offset="1" stop-color="#55C1EA"/>
</linearGradient>
<linearGradient id="paint16_linear_602_117" x1="197.464" y1="50.1566" x2="290.837" y2="-479.444" gradientUnits="userSpaceOnUse">
<stop stop-color="#7ACCEC"/>
<stop offset="1" stop-color="#3FB7ED"/>
</linearGradient>
<linearGradient id="paint17_linear_602_117" x1="1384.61" y1="312.047" x2="1384.61" y2="4974.77" gradientUnits="userSpaceOnUse">
<stop stop-color="#1DA7E7"/>
<stop offset="1" stop-color="#37ABE7" stop-opacity="0"/>
</linearGradient>
<clipPath id="clip0_602_117">
<rect width="121.738" height="116.031" fill="white" transform="translate(69 68)"/>
</clipPath>
</defs>
</svg>
