<svg width="260" height="260" viewBox="0 0 260 260" fill="none" xmlns="http://www.w3.org/2000/svg">
<g filter="url(#filter0_d_604_19454)">
<rect x="40" y="36" width="180" height="180" rx="32" fill="white"/>
<rect x="40.5" y="36.5" width="179" height="179" rx="31.5" stroke="white"/>
</g>
<g clip-path="url(#clip0_604_19454)">
<path d="M154.204 106.033L139.185 110.938L126.119 116.705L122.463 117.67C121.532 118.555 120.556 119.452 119.5 120.36C118.342 121.359 117.264 122.268 116.435 122.926C115.515 123.653 114.153 125.015 113.461 125.877C112.427 127.172 111.61 128.545 111.258 129.601C110.634 131.508 110.94 133.438 112.144 135.221C113.688 137.491 116.764 139.807 120.351 141.385C122.179 142.191 125.256 143.224 127.572 143.803C131.42 144.779 138.867 145.835 142.965 145.994C143.794 146.028 144.907 146.028 144.952 145.994C145.043 145.937 145.679 144.723 146.417 143.213C148.937 138.07 150.753 133.245 151.741 129.124C152.331 126.627 152.796 123.301 153.103 119.362C153.182 118.26 153.216 114.571 153.148 113.322C153.046 111.279 152.864 109.621 152.581 107.998C152.535 107.759 152.524 107.544 152.547 107.532C152.592 107.498 152.728 107.453 154.579 106.919L154.204 106.034V106.034H154.204V106.033ZM150.776 108.043C150.912 108.043 151.275 111.528 151.366 113.731C151.389 114.196 151.377 114.502 151.355 114.502C151.264 114.502 149.436 113.424 148.131 112.607C146.996 111.892 144.839 110.461 144.498 110.189C144.384 110.109 144.396 110.098 145.327 109.78C146.905 109.246 150.651 108.043 150.776 108.043ZM143.124 110.563C143.227 110.563 143.488 110.711 144.112 111.097C146.451 112.561 149.629 114.332 150.992 114.923C151.412 115.104 151.457 115.036 150.492 115.695C148.426 117.102 145.849 118.487 142.693 119.884C142.137 120.133 141.671 120.326 141.66 120.326C141.637 120.326 141.705 120.043 141.796 119.702C142.557 116.875 142.988 114.014 143.011 111.721C143.022 110.586 143.022 110.586 143.124 110.552C143.102 110.563 143.113 110.563 143.124 110.563ZM141.546 111.165C141.614 111.233 141.569 113.776 141.478 114.468C141.274 116.126 140.956 117.67 140.434 119.407C140.309 119.827 140.195 120.179 140.173 120.201C140.127 120.258 138.572 118.737 138.061 118.147C137.176 117.125 136.483 116.103 135.972 115.104C135.711 114.593 135.303 113.594 135.337 113.56C135.518 113.435 141.501 111.12 141.546 111.165ZM134.122 114.082C134.133 114.082 134.144 114.082 134.156 114.094C134.179 114.116 134.258 114.298 134.326 114.502C134.689 115.49 135.507 116.943 136.211 117.874C136.983 118.896 137.993 119.986 138.833 120.701C139.106 120.928 139.355 121.143 139.389 121.178C139.457 121.246 139.48 121.234 137.63 121.938C135.484 122.756 133.146 123.573 130.466 124.436C129.826 124.642 129.187 124.85 128.548 125.06C128.446 125.094 128.48 125.037 128.775 124.572C130.103 122.494 132.124 118.419 133.259 115.535C133.452 115.036 133.645 114.537 133.679 114.423C133.725 114.264 133.781 114.207 133.929 114.128C134.008 114.105 134.088 114.082 134.122 114.082ZM131.852 115.025C131.886 115.047 131.307 116.262 130.739 117.375C129.638 119.52 128.434 121.632 126.822 124.197C126.55 124.64 126.289 125.049 126.255 125.094C126.198 125.174 126.175 125.151 125.994 124.799C125.608 124.038 125.29 123.062 125.119 122.165C124.949 121.28 124.983 119.736 125.176 118.782C125.324 118.079 125.313 118.09 125.653 117.92C127.106 117.182 131.806 114.979 131.852 115.025ZM151.434 115.819V116.296C151.434 118.828 151.162 122.302 150.764 124.833C150.696 125.276 150.639 125.639 150.628 125.651C150.628 125.651 150.299 125.56 149.913 125.446C148.21 124.913 146.36 124.129 144.691 123.21C143.59 122.608 141.989 121.62 142.035 121.575C142.046 121.564 142.523 121.314 143.079 121.019C145.304 119.861 147.438 118.612 149.289 117.375C149.981 116.909 151.025 116.16 151.253 115.956L151.434 115.819ZM123.28 119.18C123.326 119.18 123.314 119.27 123.246 119.679C123.201 119.974 123.144 120.519 123.122 120.894C123.031 122.551 123.303 123.777 124.121 125.457C124.348 125.923 124.529 126.309 124.518 126.32C124.438 126.388 116.923 128.591 114.562 129.238C113.858 129.431 113.245 129.601 113.199 129.612C113.12 129.635 113.109 129.624 113.143 129.431C113.404 127.762 114.675 125.582 116.446 123.743C117.627 122.517 118.569 121.802 120.181 120.882C121.339 120.224 123.121 119.236 123.258 119.191C123.258 119.18 123.269 119.18 123.28 119.18ZM140.99 122.347C141.001 122.336 141.274 122.483 141.603 122.676C144.033 124.084 147.415 125.389 150.299 126.059L150.56 126.116L150.197 126.32C148.687 127.16 143.726 129.226 138.652 131.122C137.914 131.395 137.187 131.667 137.051 131.724C136.914 131.781 136.79 131.815 136.79 131.803C136.79 131.792 136.994 131.395 137.255 130.907C138.674 128.25 140.104 125.015 140.831 122.767C140.922 122.551 140.979 122.358 140.99 122.347ZM139.185 122.937C139.197 122.949 139.106 123.187 138.992 123.459C138.004 125.855 136.71 128.466 135.053 131.395C134.633 132.144 134.281 132.746 134.269 132.746C134.258 132.746 133.917 132.541 133.509 132.292C131.102 130.816 128.968 128.999 127.572 127.24L127.367 126.99L128.4 126.706C132.101 125.696 135.246 124.606 138.368 123.267C138.81 123.085 139.174 122.937 139.185 122.937ZM150.401 126.854C150.413 127.115 149.834 129.454 149.357 131.145C148.959 132.564 148.619 133.677 147.994 135.64C147.722 136.503 147.484 137.218 147.472 137.218C147.461 137.218 147.393 137.207 147.325 137.185C143.953 136.571 140.933 135.72 138.095 134.585C137.3 134.267 136.165 133.756 136.097 133.699C136.075 133.676 136.756 133.359 137.619 132.984C142.784 130.725 148.142 128.159 149.981 127.058C150.197 126.922 150.367 126.854 150.401 126.854ZM124.506 127.739C124.529 127.762 123.087 129.84 121.067 132.666C120.363 133.654 119.545 134.812 119.239 135.243C118.932 135.675 118.467 136.356 118.206 136.764L117.729 137.502L117.218 137.071C116.616 136.571 115.572 135.504 115.107 134.914C114.13 133.699 113.472 132.417 113.211 131.247C113.086 130.702 113.086 130.43 113.199 130.396C113.37 130.351 116.401 129.635 119.239 128.977C120.817 128.614 122.644 128.182 123.303 128.023C123.961 127.864 124.495 127.739 124.506 127.739ZM125.96 128.296L126.323 128.704C127.958 130.532 129.626 131.883 131.647 133.064C132.01 133.268 132.283 133.45 132.26 133.461C132.181 133.518 125.244 135.981 122.032 137.094C120.227 137.729 118.739 138.24 118.728 138.24C118.717 138.24 118.615 138.172 118.501 138.093L118.297 137.945L118.626 137.468C119.693 135.924 121.033 134.233 123.95 130.714L125.96 128.296ZM135.019 134.778C135.03 134.766 135.53 134.948 136.143 135.175C137.619 135.731 138.788 136.083 140.354 136.481C142.284 136.969 145.077 137.446 146.723 137.582C146.973 137.604 147.109 137.627 147.064 137.661C146.984 137.707 145.315 138.263 144.089 138.649C142.137 139.262 136.177 141.022 131.318 142.418C130.421 142.679 129.649 142.895 129.604 142.906C129.49 142.929 129.115 142.827 129.115 142.781C129.115 142.759 129.388 142.407 129.717 142.021C131.352 140.068 132.975 137.888 134.326 135.822C134.701 135.254 135.019 134.789 135.019 134.778ZM133.021 134.835C133.032 134.846 132.226 136.14 130.818 138.365C130.217 139.307 129.547 140.374 129.308 140.749C129.081 141.112 128.741 141.68 128.548 141.998L128.219 142.577L128.048 142.531C127.64 142.418 124.768 141.407 124.007 141.101C123.065 140.726 122.088 140.272 121.362 139.886C120.454 139.398 119.318 138.672 119.409 138.649C119.432 138.638 120.987 138.217 122.86 137.707C127.833 136.356 130.591 135.572 132.396 135.005C132.726 134.903 133.009 134.823 133.021 134.835ZM147.154 138.149H147.166C147.211 138.263 145.372 143.372 144.702 144.984C144.555 145.347 144.498 145.438 144.419 145.426C144.226 145.415 141.558 145.04 139.934 144.802C137.108 144.371 132.362 143.542 131.17 143.269L130.898 143.213L132.589 142.826C136.222 142.009 137.97 141.566 139.741 141.021C141.978 140.34 144.192 139.489 146.428 138.445C146.78 138.286 147.075 138.161 147.154 138.149Z" fill="url(#paint0_linear_604_19454)"/>
<path d="M138.72 71.0228C138.47 70.9889 134.44 72.442 131.84 73.4976C128.332 74.9282 125.608 76.2906 123.927 77.471C123.303 77.9139 122.52 78.6971 122.395 79.0036C122.35 79.1171 122.327 79.2533 122.327 79.3896L123.848 80.8313L127.469 81.9893L136.086 83.5332L145.94 85.2248L146.042 84.3733C146.008 84.3733 145.985 84.362 145.951 84.362L144.657 84.1576L144.396 83.6922C143.056 81.3309 141.58 78.4019 140.718 76.4266C140.048 74.894 139.412 73.1232 139.06 71.8517C138.867 71.0797 138.845 71.0343 138.72 71.023V71.0227H138.72V71.0228ZM138.538 71.6019H138.549C138.561 71.6132 138.606 71.9312 138.652 72.3056C138.844 73.8952 139.197 75.4275 139.753 77.085C140.173 78.3339 140.173 78.2658 139.685 78.1181C138.527 77.8004 133.339 76.9035 129.581 76.3813C128.979 76.3018 128.468 76.2224 128.468 76.2111C128.423 76.1657 131.182 74.7238 132.396 74.1563C133.952 73.441 138.22 71.6586 138.538 71.6019ZM127.594 76.6878L128.037 76.8352C130.444 77.6527 136.494 78.8107 139.832 79.0831C140.207 79.1172 140.525 79.1513 140.536 79.1513C140.547 79.1626 140.229 79.3329 139.821 79.5258C138.209 80.3319 136.438 81.3195 135.212 82.0802C134.848 82.3071 134.519 82.4889 134.474 82.4889C134.428 82.4889 134.19 82.4434 133.94 82.4094L133.486 82.3412L132.351 81.2286C130.353 79.2874 128.786 77.7889 128.185 77.2212L127.594 76.6878ZM127.14 77.0396L128.741 79.0377C129.615 80.1389 130.5 81.2173 130.694 81.4556C130.886 81.6942 131.045 81.8872 131.034 81.8985C130.989 81.9326 128.718 81.4897 127.515 81.2174C126.277 80.9335 125.767 80.7973 125.006 80.559L124.382 80.3546V80.1955C124.393 79.4349 125.358 78.2997 126.993 77.1419L127.14 77.0396ZM140.74 79.7642C140.786 79.7642 140.842 79.8664 140.979 80.1729C141.365 81.0242 142.568 83.3175 142.863 83.7602C142.954 83.9079 143.113 83.9192 141.512 83.6581C137.664 83.0336 136.426 82.8295 136.426 82.8068C136.426 82.7954 136.54 82.7159 136.688 82.6364C137.88 81.9781 139.083 81.1379 140.15 80.2411C140.411 80.0253 140.65 79.821 140.695 79.7869C140.706 79.7642 140.729 79.7529 140.74 79.7642Z" fill="url(#paint1_linear_604_19454)"/>
<path d="M122.474 78.8447C122.474 78.8447 122.225 79.2422 122.463 79.8326C122.611 80.1957 123.042 80.6384 123.53 81.0926C123.53 81.0926 128.582 86.0195 129.195 86.7234C131.988 89.9474 133.202 93.1261 133.316 97.5082C133.384 100.324 132.85 102.798 131.522 105.671C129.161 110.825 124.177 116.512 116.492 122.824L117.616 122.449C118.342 121.904 119.33 121.326 121.646 120.054C126.993 117.125 133.009 114.435 140.388 111.665C151.014 107.668 168.486 102.991 178.43 101.47L179.463 101.311L179.304 101.061C178.396 99.6536 177.772 98.7795 177.022 97.8487C174.843 95.1468 172.198 92.9559 168.962 91.1394C164.512 88.6534 158.756 86.7121 151.468 85.2703C150.095 84.9978 147.075 84.4756 144.623 84.101C139.423 83.2952 136.063 82.7388 132.362 82.1031C131.034 81.8759 129.047 81.5354 127.73 81.2517C127.049 81.1039 125.744 80.7975 124.722 80.4456C123.905 80.1276 122.724 79.8097 122.474 78.8447ZM125.403 81.6829C125.415 81.6717 125.596 81.7396 125.835 81.8192C126.266 81.9666 126.822 82.1369 127.481 82.3187C127.979 82.4557 128.479 82.5882 128.979 82.716C129.661 82.8862 130.228 83.0451 130.239 83.0451C130.319 83.1247 131.466 86.7912 131.852 88.199C131.999 88.7327 132.113 89.1867 132.101 89.1867C132.09 89.1982 131.965 89.005 131.817 88.744C130.489 86.4053 128.389 84.0327 125.96 82.1255C125.642 81.8986 125.403 81.6942 125.403 81.6829ZM130.989 83.2269C131.046 83.2269 131.295 83.2609 131.602 83.329C133.532 83.7604 136.994 84.4188 139.208 84.7935C139.582 84.8502 139.878 84.9184 139.878 84.941C139.878 84.9638 139.741 85.0431 139.571 85.1341C139.197 85.327 137.687 86.2237 137.187 86.5644C135.927 87.4044 134.792 88.3126 133.974 89.13C133.645 89.4592 133.361 89.7317 133.361 89.7317C133.361 89.7317 133.293 89.5388 133.236 89.3002C132.828 87.7222 131.976 85.3836 131.204 83.7376C131.079 83.4766 130.977 83.2381 130.977 83.2155C130.977 83.2382 130.977 83.2269 130.989 83.2269ZM140.82 85.1C140.888 85.1226 141.001 85.5086 141.228 86.36C141.649 88.0062 141.842 89.8453 141.773 91.5595C141.751 92.0363 141.728 92.4789 141.705 92.5359L141.671 92.6492L141.081 92.4563C139.866 92.0704 137.891 91.4913 136.2 91.0146C135.234 90.7534 134.451 90.515 134.451 90.4924C134.451 90.4242 135.859 89.0165 136.461 88.483C137.607 87.4725 140.718 85.0659 140.82 85.1ZM141.603 85.2134C141.637 85.1795 146.303 85.9853 148.426 86.3941C150.004 86.7005 152.297 87.1774 152.433 87.2343C152.501 87.2569 152.263 87.3931 151.502 87.7336C148.505 89.0847 146.28 90.2992 144.067 91.7752C143.488 92.1611 143 92.4789 142.988 92.4789C142.977 92.4789 142.966 92.1498 142.966 91.7524C142.966 89.5956 142.534 87.4159 141.739 85.5768C141.66 85.3951 141.592 85.2249 141.603 85.2134ZM153.671 87.5975C153.705 87.6315 153.557 88.5512 153.421 89.096C153.012 90.7875 151.911 93.2966 150.56 95.6577C150.322 96.0778 150.106 96.4183 150.083 96.4297C150.061 96.441 149.754 96.2706 149.402 96.0663C148.085 95.2943 146.587 94.5678 144.952 93.8866C144.498 93.6937 144.101 93.5346 144.089 93.5121C144.01 93.4439 147.665 91.0259 149.595 89.8679C151.128 88.9371 153.625 87.552 153.671 87.5975ZM154.533 87.7337C154.636 87.7337 156.702 88.3014 157.78 88.6192C160.448 89.414 163.513 90.5378 165.511 91.4459L166.34 91.8207L165.761 91.9568C160.88 93.0806 156.702 94.375 152.672 96.0097C152.342 96.1459 152.047 96.2594 152.025 96.2594C152.002 96.2594 152.115 95.9983 152.263 95.6804C153.478 93.1034 154.261 90.4129 154.454 88.1196C154.465 87.9039 154.499 87.7337 154.533 87.7337ZM133.963 92.4563C133.997 92.4222 135.575 92.7969 136.427 93.0351C137.721 93.3985 140.468 94.318 140.468 94.3862C140.468 94.3975 140.161 94.6586 139.798 94.9766C138.311 96.214 136.881 97.5193 135.166 99.1768C134.655 99.6652 134.224 100.062 134.202 100.062C134.179 100.062 134.168 99.9942 134.179 99.9034C134.44 97.9961 134.383 95.5441 134.02 93.0579C133.986 92.74 133.952 92.4676 133.963 92.4563ZM167.123 92.4905C167.146 92.513 166.397 93.6937 165.92 94.3634C165.239 95.3397 164.24 96.6341 161.98 99.4721C160.789 100.971 159.449 102.662 159.006 103.23C158.552 103.797 158.178 104.274 158.166 104.274C158.155 104.274 158.007 104.07 157.848 103.82C156.577 101.913 155.056 100.244 153.251 98.7455C152.91 98.4616 152.536 98.1551 152.411 98.0643C152.286 97.9735 152.183 97.8827 152.183 97.8714C152.183 97.8374 154.113 97.0085 155.578 96.4183C158.144 95.3738 161.64 94.1251 164.262 93.319C165.636 92.8877 167.101 92.4676 167.123 92.4905ZM167.997 92.7174C168.043 92.7061 168.315 92.8423 168.644 93.0351C171.403 94.6131 174.105 96.6453 176.239 98.7342C176.841 99.3246 178.328 100.868 178.305 100.88C178.305 100.88 177.783 100.925 177.17 100.971C172.391 101.334 166.272 102.344 160.391 103.763C159.994 103.854 159.642 103.933 159.619 103.933C159.597 103.933 160.039 103.491 160.596 102.957C164.047 99.631 165.625 97.5308 167.487 93.7844C167.748 93.2283 167.975 92.7515 167.997 92.7174C167.986 92.7174 167.986 92.7174 167.997 92.7174ZM142.716 95.3059C142.875 95.3397 144.35 96.0325 145.463 96.5886C146.485 97.0993 148.017 97.9168 148.097 97.9848C148.108 97.9961 147.563 98.28 146.894 98.6093C144.759 99.6764 142.931 100.687 141.024 101.845C140.479 102.174 140.025 102.446 140.014 102.446C139.968 102.446 139.98 102.401 140.286 101.845C141.308 99.983 142.125 97.7579 142.591 95.5895C142.636 95.4192 142.682 95.3059 142.716 95.3059ZM141.24 95.5782C141.274 95.6123 140.888 97.0085 140.65 97.7692C140.184 99.211 139.401 101.016 138.64 102.378C138.458 102.696 138.186 103.161 138.038 103.423L137.755 103.877L137.119 103.264C136.381 102.548 135.779 102.106 135.008 101.708C134.701 101.55 134.463 101.413 134.463 101.391C134.463 101.3 136.404 99.5402 137.891 98.2687C138.958 97.3491 141.206 95.5442 141.24 95.5782ZM150.265 99.2905L150.821 99.6536C152.093 100.482 153.591 101.584 154.738 102.548C155.385 103.082 156.634 104.206 156.884 104.478L157.02 104.626L156.1 104.887C150.901 106.329 146.882 107.612 142.193 109.337C141.671 109.53 141.228 109.689 141.194 109.689C141.126 109.689 141.069 109.746 142.239 108.667C145.236 105.909 147.892 102.866 149.868 99.9033L150.265 99.2905ZM147.892 99.8808C147.915 99.9034 146.36 102.094 145.429 103.332C144.316 104.808 142.341 107.282 140.979 108.894C140.411 109.564 139.923 110.12 139.9 110.132C139.866 110.143 139.855 109.973 139.855 109.712C139.855 108.338 139.503 106.874 138.89 105.625C138.629 105.103 138.583 104.978 138.64 104.921C138.856 104.728 142.159 102.844 144.248 101.72C145.656 100.971 147.858 99.8581 147.892 99.8808ZM133.543 103.4C133.577 103.4 133.838 103.536 134.133 103.695C134.86 104.092 135.507 104.535 136.086 105.012C136.109 105.035 135.813 105.273 135.428 105.557C134.349 106.329 132.714 107.566 131.761 108.327C130.762 109.122 130.728 109.144 130.841 108.974C131.591 107.827 131.965 107.18 132.362 106.352C132.714 105.614 133.066 104.74 133.316 103.979C133.407 103.65 133.52 103.4 133.543 103.4ZM137.369 106.397C137.425 106.386 137.494 106.488 137.8 106.942C138.447 107.907 138.947 109.201 139.072 110.245L139.094 110.473L137.539 111.074C134.758 112.153 132.192 113.22 130.455 114.014C129.967 114.242 129.116 114.65 128.559 114.923C128.003 115.206 127.549 115.422 127.549 115.411C127.549 115.4 127.901 115.138 128.332 114.82C131.727 112.357 134.667 109.655 136.869 106.953C137.108 106.669 137.323 106.408 137.346 106.397L137.369 106.397ZM135.609 106.828C135.655 106.874 134.361 108.338 133.475 109.235C131.284 111.472 129.116 113.22 126.425 114.923C126.085 115.138 125.778 115.331 125.744 115.354C125.664 115.4 125.767 115.286 126.947 114.003C127.697 113.197 128.264 112.516 128.911 111.676C129.343 111.12 129.422 111.04 130.047 110.597C131.715 109.394 135.564 106.783 135.609 106.828Z" fill="url(#paint2_radial_604_19454)"/>
<path d="M86.4497 153.835C86.2403 153.835 86.0308 153.855 85.8232 153.855C81.5934 154.08 78.7405 155.942 77.0725 159.577C75.6459 162.865 75.8016 167.162 77.0885 170.47C78.5849 173.703 81.003 175.408 85.0391 176.053C85.8931 176.193 86.4657 176.661 88.1197 178.593L90.1548 180.977H93.8458L91.3915 178.503C90.0348 177.146 88.9375 175.965 88.9375 175.861C88.9375 175.757 89.4565 175.53 90.0847 175.338C92.1557 174.712 93.8755 173.112 95.0785 170.66C96.0522 168.691 96.192 168.082 96.3315 165.632C96.6967 158.34 92.852 153.781 86.4495 153.833L86.4497 153.835ZM89.6857 172.905C87.8901 173.774 85.2827 173.948 83.5807 173.324C81.821 172.677 80.1172 170.85 79.3509 168.781C78.499 166.518 78.6206 162.344 79.5943 160.465C81.1605 157.472 83.2316 156.096 86.2581 156.096C90.7472 156.096 93.3009 158.845 93.6342 164.012C93.8976 168.326 92.453 171.562 89.6877 172.903L89.6857 172.905ZM153.447 160.064C151.898 160.064 150.713 160.69 149.915 161.925L149.289 162.903V160.361H146.609V175.604H149.287V170.732C149.287 166.277 149.342 165.756 149.965 164.537C150.823 162.865 152.299 162.031 153.726 162.43L154.684 162.709V160.068H153.447V160.064ZM137.705 159.924C137.18 159.924 136.623 159.994 136.069 160.116C132.484 161.053 130.463 164.485 130.586 168.016C130.586 170.973 131.161 172.452 132.587 174.002C135.51 176.4 138.154 176.591 141.721 175.305C142.33 175.045 142.992 174.746 142.992 174.746V172.348L141.721 173.006C138.834 174.263 136.659 174.263 134.918 172.783C133.806 171.652 133.318 170.295 133.092 168.747H143.896V166.692C143.896 162.502 141.374 159.856 137.703 159.924H137.705ZM133.336 166.608C133.336 166.608 133.735 163.994 135.215 162.969C135.927 162.466 136.745 162.223 137.545 162.223C138.347 162.223 139.147 162.482 139.808 162.987C141.165 164.03 141.392 166.588 141.392 166.588H133.336V166.608H133.336ZM68.7387 163.859C65.8339 162.099 64.545 160.83 64.7026 159.334C65.1534 155.194 70.2691 155.766 73.1021 157.333L73.1222 154.547C73.1222 154.547 71.5559 153.869 69.3113 153.833C65.8677 153.781 63.6411 154.91 62.5978 157.209C61.0654 160.6 62.4223 163.158 67.3264 166.011C70.0797 167.613 71.2966 169.004 71.2966 170.52C71.2966 173.653 67.5198 174.746 63.6234 172.781C62.8215 172.382 62.143 172.049 62.1072 172.049C61.9674 172.937 62.0395 175.061 62.0395 175.061C62.0395 175.061 63.2366 175.564 65.0321 175.911C69.485 176.799 73.5373 174.71 73.9204 171.318C74.2536 168.134 73.1022 166.464 68.7389 163.856L68.7387 163.859ZM177.161 159.888C176.638 159.888 176.083 159.96 175.505 160.082C171.924 161.019 169.906 164.451 170.044 167.983C170.044 170.936 170.617 172.4 172.043 173.948C174.966 176.348 177.61 176.542 181.195 175.253C181.802 174.994 182.462 174.699 182.462 174.699V172.296L181.193 172.959C178.3 174.212 176.125 174.212 174.39 172.731C173.272 171.602 172.788 170.261 172.562 168.695H183.348V166.64C183.348 162.47 180.826 159.823 177.155 159.893L177.161 159.888ZM172.791 166.572C172.791 166.572 173.194 163.962 174.673 162.917C175.383 162.412 176.201 162.169 177.001 162.169C177.799 162.169 178.603 162.428 179.264 162.935C180.621 163.978 180.848 166.554 180.848 166.554H172.794L172.791 166.572ZM123.679 163.893C120.774 162.137 119.489 160.864 119.645 159.367C120.096 155.225 125.211 155.8 128.044 157.366L128.064 154.581C128.064 154.581 126.498 153.903 124.254 153.871C120.81 153.819 118.583 154.948 117.538 157.247C116.008 160.638 117.382 163.196 122.271 166.049C125.02 167.649 126.237 169.022 126.237 170.538C126.237 173.671 122.462 174.782 118.566 172.799C117.767 172.4 117.089 172.07 117.049 172.07C116.91 172.958 116.982 175.083 116.982 175.083C116.982 175.083 118.165 175.568 119.954 175.933C124.411 176.823 128.465 174.736 128.847 171.344C129.178 168.176 128.029 166.506 123.679 163.896V163.893H123.679ZM192.905 160.028C191.356 160.028 190.157 160.656 189.373 161.891L188.747 162.865V160.327H186.067V175.566H188.745V170.694C188.745 166.241 188.798 165.718 189.423 164.501C190.281 162.831 191.757 161.995 193.184 162.396L194.141 162.675V160.028L192.905 160.028ZM102.371 163.805V154.096H99.6696V175.6H111.03V173.06H102.371V163.805H102.371ZM164.843 166.831L162.616 172.625L160.475 166.799L158.301 160.343H155.535C157.327 165.423 159.276 170.59 161.242 175.6C162.093 175.62 162.947 175.6 163.799 175.6L166.806 168.05L169.869 160.345H167.225C167.225 160.345 166.058 163.406 164.841 166.833L164.843 166.831ZM108.596 148.236C109.031 148.236 109.394 148.097 109.693 147.798C109.988 147.502 110.144 147.155 110.144 146.72C110.144 146.285 109.988 145.922 109.693 145.643C109.394 145.364 109.049 145.224 108.616 145.224C108.177 145.224 107.814 145.364 107.518 145.659C107.219 145.954 107.083 146.317 107.083 146.736C107.083 147.175 107.223 147.538 107.518 147.814C107.798 148.093 108.161 148.233 108.596 148.233V148.236ZM107.638 145.763C107.897 145.503 108.213 145.383 108.616 145.383C108.995 145.383 109.31 145.503 109.574 145.763C109.833 146.022 109.973 146.337 109.973 146.72C109.973 147.103 109.833 147.435 109.574 147.694C109.31 147.953 108.995 148.077 108.616 148.077C108.231 148.077 107.917 147.957 107.658 147.694C107.399 147.435 107.259 147.103 107.259 146.72C107.259 146.337 107.379 146.022 107.638 145.763ZM108.282 146.86H108.458C108.582 146.86 108.703 146.98 108.807 147.207L109.017 147.678H109.346L109.087 147.155C108.981 146.946 108.877 146.824 108.755 146.79C108.909 146.754 109.031 146.702 109.119 146.598C109.206 146.509 109.238 146.387 109.238 146.249C109.238 146.09 109.188 145.97 109.083 145.882C108.963 145.782 108.771 145.729 108.524 145.729H107.969V147.678H108.249V146.86L108.282 146.86ZM108.282 145.954H108.526C108.702 145.954 108.825 145.99 108.893 146.042C108.959 146.094 108.977 146.162 108.977 146.285C108.977 146.511 108.837 146.617 108.578 146.617H108.279V145.954H108.282ZM63.659 146.686C63.659 146.008 63.6391 145.503 63.6231 145.206H63.6391C63.7089 145.557 63.7947 145.818 63.8645 145.992L66.4581 151.786H66.8931L69.4867 145.94C69.5567 145.781 69.6265 145.541 69.7123 145.208H69.7322C69.6804 145.787 69.6624 146.289 69.6624 146.69V151.804H70.5501V144.202H69.4368L67.0527 149.489C66.9649 149.699 66.8432 150.012 66.6876 150.427H66.6515C66.5997 150.222 66.478 149.908 66.3045 149.525L63.974 144.184H62.791V151.786H63.6449V146.69L63.659 146.686ZM72.4955 146.7H73.2618V151.435H72.4955V146.7ZM72.8786 144.965C73.0383 144.965 73.1739 144.911 73.2776 144.805C73.3834 144.701 73.4533 144.566 73.4533 144.406C73.4533 144.25 73.4014 144.111 73.2797 144.007C73.172 143.901 73.0343 143.847 72.8767 143.847C72.7212 143.847 72.5815 143.901 72.4776 144.007C72.3721 144.111 72.3021 144.25 72.3021 144.406C72.3021 144.58 72.356 144.701 72.4776 144.805C72.5975 144.911 72.7211 144.965 72.8767 144.965H72.8786ZM78.7245 151.539V150.705C78.3054 151.018 77.8545 151.174 77.3877 151.174C76.8292 151.174 76.3761 150.982 76.0449 150.615C75.7158 150.252 75.5403 149.747 75.5403 149.119C75.5403 148.46 75.7158 147.937 76.0789 147.538C76.428 147.155 76.881 146.964 77.4357 146.964C77.8886 146.964 78.3233 147.104 78.7246 147.383V146.495C78.3595 146.304 77.9426 146.216 77.4716 146.216C76.6016 146.216 75.9235 146.495 75.4167 147.034C74.9138 147.573 74.6545 148.305 74.6545 149.189C74.6545 149.975 74.8799 150.635 75.3489 151.14C75.8376 151.659 76.4623 151.922 77.2283 151.922C77.8207 151.906 78.3054 151.782 78.7245 151.539ZM80.9171 149.015C80.9171 148.39 81.0567 147.886 81.3161 147.538C81.5596 147.225 81.8548 147.067 82.2039 147.067C82.4992 147.067 82.7086 147.121 82.8622 147.243V146.337C82.7426 146.285 82.569 146.267 82.3436 146.267C82.0303 146.267 81.7512 146.373 81.5057 146.567C81.2463 146.772 81.0389 147.085 80.9171 147.484H80.8973V146.373H80.0294V151.8H80.8992V149.015H80.9171ZM85.9109 151.908C86.729 151.908 87.3874 151.644 87.8761 151.122C88.3628 150.603 88.6063 149.905 88.6063 149.034C88.6063 148.147 88.383 147.468 87.928 146.963C87.4772 146.459 86.8506 146.215 86.0325 146.215C85.2144 146.215 84.556 146.459 84.0673 146.93C83.5446 147.449 83.2692 148.181 83.2692 149.12C83.2692 149.938 83.4927 150.617 83.9637 151.122C84.4504 151.644 85.0948 151.906 85.9109 151.906V151.908ZM84.6739 147.486C85.0051 147.137 85.4402 146.964 85.9787 146.964C86.5376 146.964 86.9565 147.137 87.2677 147.486C87.5809 147.852 87.7366 148.372 87.7366 149.069C87.7366 149.731 87.5969 150.252 87.3016 150.601C87.0064 150.966 86.5714 151.159 85.9967 151.159C85.4381 151.159 85.0051 150.966 84.6739 150.601C84.3448 150.234 84.1871 149.731 84.1871 149.069C84.1533 148.41 84.3269 147.872 84.6739 147.486ZM92.4152 151.435C92.7463 151.14 92.9221 150.777 92.9221 150.321C92.9221 149.922 92.7822 149.591 92.523 149.33C92.3113 149.121 91.9844 148.931 91.5115 148.739C91.0923 148.564 90.833 148.408 90.6933 148.286C90.5537 148.147 90.4679 147.973 90.4679 147.728C90.4679 147.502 90.5557 147.329 90.7274 147.189C90.903 147.05 91.1264 146.982 91.4257 146.982C91.8946 146.982 92.2955 147.105 92.6625 147.367V146.497C92.3114 146.322 91.9304 146.238 91.4954 146.238C90.9368 146.238 90.4659 146.391 90.1186 146.688C89.7535 146.984 89.58 147.367 89.58 147.818C89.58 148.217 89.6996 148.548 89.927 148.791C90.1185 148.999 90.446 149.21 90.9007 149.4C91.3357 149.591 91.631 149.765 91.7885 149.904C91.9441 150.044 92.0139 150.218 92.0139 150.423C92.0139 150.93 91.6669 151.192 90.9884 151.192C90.4657 151.192 89.997 151.02 89.5777 150.673V151.61C89.9569 151.838 90.4118 151.942 90.9145 151.942C91.559 151.908 92.0637 151.75 92.4109 151.437L92.4152 151.435ZM96.5571 146.215C95.7389 146.215 95.0807 146.459 94.5918 146.93C94.0731 147.449 93.7938 148.181 93.7938 149.121C93.7938 149.939 94.0194 150.617 94.4882 151.122C94.977 151.644 95.6193 151.906 96.4374 151.906C97.2753 151.906 97.9139 151.643 98.4026 151.12C98.8915 150.601 99.1348 149.903 99.1348 149.033C99.1348 148.145 98.9074 147.467 98.4564 146.962C97.9858 146.457 97.359 146.213 96.561 146.213L96.5571 146.215ZM98.2449 149.069C98.2449 149.731 98.1053 150.252 97.81 150.601C97.5147 150.966 97.0797 151.159 96.5051 151.159C95.9462 151.159 95.5134 150.966 95.1821 150.601C94.853 150.234 94.6954 149.731 94.6954 149.069C94.6954 148.37 94.8691 147.832 95.2183 147.468C95.5473 147.121 95.9825 146.946 96.5231 146.946C97.0617 146.946 97.4947 147.121 97.8078 147.468C98.0872 147.851 98.2429 148.372 98.2429 149.069H98.2449ZM100.595 151.784H101.463V147.086H102.734V146.355H101.463V145.517C101.463 144.755 101.758 144.372 102.369 144.372C102.574 144.372 102.784 144.424 102.94 144.512V143.728C102.784 143.658 102.574 143.642 102.313 143.642C101.844 143.642 101.461 143.782 101.148 144.077C100.783 144.424 100.589 144.875 100.589 145.486V146.376H99.6712V147.106H100.589V151.787L100.595 151.784ZM104.161 150.304C104.161 151.365 104.63 151.906 105.587 151.906C105.934 151.906 106.196 151.85 106.405 151.726V150.98C106.246 151.1 106.056 151.156 105.847 151.156C105.551 151.156 105.344 151.086 105.222 150.928C105.098 150.773 105.029 150.509 105.029 150.146V147.083H106.405V146.353H105.029V144.753C104.729 144.857 104.436 144.945 104.159 145.032V146.353H103.221V147.083H104.159V150.302L104.161 150.304ZM197.533 160.307C197.238 160.028 196.889 159.888 196.456 159.888C196.017 159.888 195.654 160.028 195.359 160.327C195.063 160.62 194.923 160.985 194.923 161.405C194.923 161.84 195.063 162.203 195.356 162.482C195.652 162.761 196.015 162.901 196.454 162.901C196.887 162.901 197.252 162.761 197.551 162.466C197.844 162.167 198 161.822 198 161.389C197.984 160.95 197.826 160.587 197.531 160.307L197.533 160.307ZM197.394 162.362C197.134 162.622 196.819 162.741 196.436 162.741C196.057 162.741 195.742 162.622 195.478 162.362C195.219 162.099 195.079 161.77 195.079 161.385C195.079 161.005 195.199 160.69 195.462 160.427C195.722 160.168 196.035 160.048 196.436 160.048C196.815 160.048 197.13 160.168 197.394 160.427C197.653 160.69 197.793 161.005 197.793 161.385C197.793 161.788 197.673 162.099 197.394 162.362ZM196.611 161.474C196.767 161.438 196.891 161.369 196.977 161.283C197.064 161.193 197.096 161.071 197.096 160.932C197.096 160.776 197.047 160.652 196.941 160.567C196.821 160.467 196.628 160.413 196.382 160.413H195.828V162.36H196.107V161.542H196.281C196.4 161.542 196.52 161.662 196.628 161.889L196.835 162.358H197.167L196.907 161.835C196.817 161.608 196.714 161.504 196.608 161.47L196.611 161.474ZM196.42 161.299H196.121V160.641H196.366C196.54 160.641 196.661 160.672 196.731 160.726C196.801 160.778 196.817 160.846 196.817 160.97C196.817 161.195 196.677 161.299 196.418 161.299L196.42 161.299ZM147.88 146.13H148.124V144.18H148.768V143.937H147.236V144.18H147.88V146.13H147.88ZM149.357 144.665C149.357 144.476 149.357 144.32 149.343 144.232C149.359 144.336 149.395 144.406 149.411 144.458L150.159 146.13H150.278L151.028 144.442C151.049 144.39 151.065 144.322 151.098 144.232C151.082 144.406 151.082 144.545 151.082 144.651V146.128H151.342V143.937H151.028L150.35 145.449C150.334 145.503 150.28 145.609 150.246 145.729H150.226C150.213 145.659 150.177 145.589 150.127 145.47L149.448 143.937H149.097V146.132H149.343V144.667L149.357 144.665Z" fill="#231F1F"/>
</g>
<defs>
<filter id="filter0_d_604_19454" x="0" y="0" width="260" height="260" filterUnits="userSpaceOnUse" color-interpolation-filters="sRGB">
<feFlood flood-opacity="0" result="BackgroundImageFix"/>
<feColorMatrix in="SourceAlpha" type="matrix" values="0 0 0 0 0 0 0 0 0 0 0 0 0 0 0 0 0 0 127 0" result="hardAlpha"/>
<feOffset dy="4"/>
<feGaussianBlur stdDeviation="20"/>
<feComposite in2="hardAlpha" operator="out"/>
<feColorMatrix type="matrix" values="0 0 0 0 0.0367917 0 0 0 0 0.0348958 0 0 0 0 0.0484375 0 0 0 0.1 0"/>
<feBlend mode="normal" in2="BackgroundImageFix" result="effect1_dropShadow_604_19454"/>
<feBlend mode="normal" in="SourceGraphic" in2="effect1_dropShadow_604_19454" result="shape"/>
</filter>
<linearGradient id="paint0_linear_604_19454" x1="122.242" y1="138.601" x2="127.673" y2="135.392" gradientUnits="userSpaceOnUse">
<stop stop-color="#909CA9"/>
<stop offset="1" stop-color="#EDEDEE"/>
</linearGradient>
<linearGradient id="paint1_linear_604_19454" x1="122.367" y1="78.1016" x2="126.736" y2="78.1016" gradientUnits="userSpaceOnUse">
<stop stop-color="#939FAB"/>
<stop offset="1" stop-color="#DCDEE1"/>
</linearGradient>
<radialGradient id="paint2_radial_604_19454" cx="0" cy="0" r="1" gradientUnits="userSpaceOnUse" gradientTransform="translate(144.417 98.1433) rotate(-171.457) scale(5.63398 11.2708)">
<stop stop-color="#EE352C"/>
<stop offset="1" stop-color="#A91D22"/>
</radialGradient>
<clipPath id="clip0_604_19454">
<rect width="136" height="136" fill="white" transform="translate(62 58)"/>
</clipPath>
</defs>
</svg>
